<?xml version="1.0" encoding="UTF-8"?>
<svg width="60px" height="60px" viewBox="0 0 60 60" version="1.1" xmlns="http://www.w3.org/2000/svg" xmlns:xlink="http://www.w3.org/1999/xlink">
    <!-- Generator: Sketch 52.5 (67469) - http://www.bohemiancoding.com/sketch -->
    <title>icon_organization</title>
    <desc>Created with Sketch.</desc>
    <g id="Page-1" stroke="none" stroke-width="1" fill="none" fill-rule="evenodd">
        <g id="icon_organization">
            <circle id="Oval" fill="#1B92EC" cx="30" cy="30" r="30"></circle>
            <g id="Group" transform="translate(9.230769, 18.461538)" fill="#FFFFFF" fill-rule="nonzero">
                <path d="M20.9688799,0.168766866 L41.93776,8.09033909 L20.9688799,16.0119299 L-9.31950222e-08,8.09033909 L20.9688799,0.168766866 Z M39.6078844,9.95423954 L39.6078844,14.9780244 C39.8916166,15.2338913 40.0738595,15.599775 40.0738595,16.0119299 C40.0738595,16.7840041 39.4479618,17.4098552 38.6759342,17.4098552 C37.9039066,17.4098552 37.2780089,16.7840041 37.2780089,16.0119299 C37.2780089,15.599775 37.4602517,15.2338913 37.7439839,14.9780244 L37.7439839,10.6532022 L39.6078844,9.95423954 Z M34.0161831,12.06568 L34.0161831,18.8077806 C34.0161831,20.7584456 28.1970858,23.4675318 20.9688799,23.4675318 C13.740674,23.4675318 7.92157687,20.7584456 7.92157687,18.8077806 L7.92157687,12.06568 L20.633937,16.8710948 C20.8495162,16.954112 21.0882437,16.954112 21.3038229,16.8710948 L34.0161831,12.06568 Z" id="Shape"></path>
            </g>
        </g>
    </g>
</svg>