<?xml version="1.0" encoding="UTF-8"?>
<svg width="254px" height="254px" viewBox="0 0 254 254" version="1.1" xmlns="http://www.w3.org/2000/svg" xmlns:xlink="http://www.w3.org/1999/xlink">
    <!-- Generator: Sketch 45.2 (43514) - http://www.bohemiancoding.com/sketch -->
    <title>Lecturer</title>
    <desc>Created with Sketch.</desc>
    <defs></defs>
    <g id="Page-1" stroke="none" stroke-width="1" fill="none" fill-rule="evenodd">
        <g id="Lecturer">
            <circle id="Oval" fill="#36505F" fill-rule="nonzero" cx="127" cy="127" r="127"></circle>
            <rect id="Rectangle-path" fill="#FFFFFF" x="120.435771" y="49.9410414" width="101.517985" height="77.3336263"></rect>
            <path d="M170.511501,90.5090004 L176.270393,90.5090004 L176.270393,120.253218 L170.511501,120.253218 L170.511501,90.5090004 Z M139.615227,109.621894 L145.374528,109.621894 L145.374528,120.2533 L139.615227,120.2533 L139.615227,109.621894 Z M147.339296,105.720944 L153.098597,105.720944 L153.098597,120.253218 L147.339296,120.253218 L147.339296,105.720944 Z M155.063364,100.83324 L160.822257,100.83324 L160.822257,120.253218 L155.063364,120.253218 L155.063364,100.83324 Z M162.787433,96.2190532 L168.546325,96.2190532 L168.546325,120.253218 L162.787433,120.253218 L162.787433,96.2190532 Z" id="Shape" fill="#21D0C3"></path>
            <path d="M136.11855,102.89928 C144.415461,99.6365094 155.673449,94.3712388 165.82136,79.0138388 L162.732631,76.7755536 L171.898852,74.1099639 L171.823797,83.3641452 L169.090991,81.3837782 C163.158547,89.7114796 154.437598,100.332758 136.11855,102.89928 Z" id="Shape" fill="#FF5B62"></path>
            <g id="Group" transform="translate(181.958803, 54.844263)">
                <path d="M22.6228837,5.77498153 L13.4925979,14.7303273 L23.1629764,23.0995178 C25.1061013,20.856169 26.2811888,17.9309461 26.2811888,14.7303273 C26.2811888,11.2428788 24.885997,8.08187063 22.6228837,5.77498153 Z" id="Shape" fill="#FCB42A"></path>
                <path d="M13.865101,0 L13.865101,12.7885908 L22.9953868,3.83324506 C20.6742869,1.46747091 17.4414079,0 13.865101,0 Z" id="Shape" fill="#FF5B62"></path>
                <path d="M12.7885908,2.55966195 C5.7257337,2.55966195 0,8.28490562 0,15.3482528 C0,22.4111099 5.7257337,28.1368436 12.7885908,28.1368436 C16.6513193,28.1368436 20.1139397,26.4244403 22.4589693,23.7174432 L12.7885908,15.3482528 L12.7885908,2.55966195 Z" id="Shape" fill="#15BDB2"></path>
            </g>
            <path d="M185.49599,88.49964 L214.058749,88.49964 L214.058749,89.7958461 L185.49599,89.7958461 L185.49599,88.49964 Z M185.49599,97.0041599 L201.936434,97.0041599 L201.936434,98.299876 L185.49599,98.299876 L185.49599,97.0041599 Z M185.49599,94.1691838 L214.058749,94.1691838 L214.058749,95.4653899 L185.49599,95.4653899 L185.49599,94.1691838 Z M185.49599,91.3346161 L214.058749,91.3346161 L214.058749,92.6303322 L185.49599,92.6303322 L185.49599,91.3346161 Z" id="Shape" fill="#C9CACC"></path>
            <path d="M185.49599,100.62702 L209.672916,100.62702 L209.672916,101.923226 L185.49599,101.923226 L185.49599,100.62702 Z M185.49599,109.131539 L197.124194,109.131539 L197.124194,110.427256 L185.49599,110.427256 L185.49599,109.131539 Z M185.49599,106.296563 L205.987496,106.296563 L205.987496,107.592769 L185.49599,107.592769 L185.49599,106.296563 Z M185.49599,103.461996 L214.058749,103.461996 L214.058749,104.757712 L185.49599,104.757712 L185.49599,103.461996 Z" id="Shape" fill="#D1D2D4"></path>
            <path d="M137.223645,78.1463257 C137.223645,78.1463257 139.125771,74.186 141.046763,74.4576389 C142.968245,74.7292778 143.055715,74.8444344 143.055715,74.8444344 L152.559892,73.8056565 C153.640078,73.6878047 153.877251,75.3813419 152.630375,75.5512184 L146.412898,76.4016622 C146.412898,76.4016622 147.465478,76.8345204 147.423581,77.4984268 C147.382173,78.1624149 146.877036,79.1744864 146.877036,79.1744864 C146.877036,79.1744864 147.38446,80.3297277 147.341174,80.6332184 C147.298379,80.9366275 146.065713,82.0003153 146.065713,82.0003153 L146.579099,83.1049203 L145.711177,84.0042036 C145.711177,84.0042036 141.655541,84.7289552 141.056482,84.9541232 C140.457014,85.1788011 137.949785,84.3090011 137.949785,84.3090011 L133.992645,84.9351754 L133.79696,79.3881386 L137.223645,78.1463257 Z" id="Shape" fill="#FED298"></path>
            <path d="M45.1715339,128.320878 C45.1715339,128.320878 46.5721977,128.313037 47.1560662,129.561302 L48.3610454,132.136645 C48.0152489,133.813603 47.198862,134.453171 47.198862,134.453171 C47.7716232,134.968844 47.7951446,135.551325 47.2503966,136.699215 C46.7475461,137.759636 45.4297788,137.50915 44.8537507,136.993477 C44.8537507,136.993477 43.9811739,137.8605 43.343484,137.674045 C42.704814,137.487589 42.3645711,137.353076 42.3645711,137.353076 C42.3645711,137.353076 41.2856925,137.792795 40.9997611,137.68458 C40.7133397,137.576856 39.9462823,136.138868 39.9462823,136.138868 L38.7551056,136.397603 L37.5906354,135.313253 C37.5906354,135.313253 38.1339949,130.920559 38.0460349,130.286952 C37.9585649,129.653346 38.9991396,127.674776 38.9991396,127.674776 L39.2578744,123.678025 L44.7118876,124.704797 L45.1714523,128.320714 L45.1715339,128.320878 Z" id="Shape" fill="#FED298"></path>
            <path d="M67.9468164,59.5090857 L80.5268186,59.5090857 L88.2334094,130.8063 C79.5345933,132.612626 70.9006243,132.640721 62.3329725,130.8063 L67.0655008,64.3575874 L67.9468164,59.5090041 L67.9468164,59.5090857 Z" id="Shape" fill="#15BDB2"></path>
            <polygon id="Shape" fill="#FFFFFF" points="67.9468164 59.5090857 80.5268186 59.5090857 84.2302062 93.7703826 64.9704672 93.7703826 67.0655008 64.3576691"></polygon>
            <path d="M67.9468164,59.5090857 C72.1401505,59.5090857 76.3334846,59.5090857 80.5268186,59.5090857 L80.5949325,60.1385269 L74.4483463,66.9559616 L67.8445639,60.0708213 L67.9468164,59.5090857 Z" id="Shape" fill="#AAB5BD"></path>
            <path d="M72.724509,67.2659044 C73.7016251,67.2686812 74.7404031,67.2479367 75.7132723,67.2672928 C75.8237736,67.7958698 75.934765,68.3249368 76.0475531,68.8531055 C77.3704658,74.8827383 77.9224824,82.7587155 79.1790779,88.7667054 L74.4650073,92.7445087 L69.7417078,88.7667054 C70.8150328,83.6611839 71.6507757,72.3709358 72.724509,67.2659044 Z" id="Shape" fill="#FCB42A"></path>
            <path d="M71.3247437,66.8731468 C72.01454,66.0498996 72.7023761,65.2256722 73.391274,64.4014449 L75.0857096,64.4014449 C75.7741174,65.2242838 76.4606469,66.0485112 77.1485647,66.8712684 C76.8124054,67.6549867 76.4634237,68.4335597 76.126366,69.2172781 C74.9471133,69.163865 73.5492264,69.2310805 72.3483308,69.2136029 C72.0080879,68.4335597 71.666375,67.6531083 71.3247437,66.8731468 Z" id="Shape" fill="#F5A30A"></path>
            <polygon id="Shape" fill="#21D0C3" points="58.4679573 123.051442 59.8654358 204.854288 71.2321284 204.854288 75.3255784 122.841465"></polygon>
            <polygon id="Shape" fill="#15BDB2" points="65.5501705 204.854288 71.2335168 204.854288 75.3255784 122.841465 66.8970128 122.946903"></polygon>
            <polygon id="Shape" fill="#15BDB2" points="91.082678 123.051442 89.684301 204.854288 78.3176085 204.854288 74.2246485 122.841465"></polygon>
            <polygon id="Shape" fill="#21D0C3" points="84.0000564 204.854288 78.3166284 204.854288 74.2246485 122.841465 82.6536224 122.946903"></polygon>
            <path d="M66.4398166,74.6906473 L74.2366542,88.1956592 L82.0339001,74.6906473 L85.1792274,120.582925 C85.1792274,120.582925 78.5979862,126.173738 77.8217,126.290201 C77.0449237,126.406665 76.7925592,125.824184 76.7925592,125.824184 L74.2365725,120.194251 L71.6810758,125.824184 C71.6810758,125.824184 71.4287113,126.406665 70.6519351,126.290201 C69.8751588,126.173738 63.2944077,120.582925 63.2944077,120.582925 L66.4397349,74.6906473 L66.4398166,74.6906473 Z" id="Shape" fill="#ECF0F1"></path>
            <path d="M67.1898863,60.9457665 L67.9468981,59.5096574 L73.4797241,64.4015266 L69.4420556,69.2546835 L67.189968,60.9458482 L67.1898863,60.9457665 Z M81.2838304,60.9457665 L80.5268186,59.5096574 L74.9939927,64.4015266 L79.0316611,69.2546835 L81.2837487,60.9458482 L81.2838304,60.9457665 Z" id="Shape" fill="#FFFFFF"></path>
            <path d="M80.934767,60.0353759 L83.7882009,63.0052731 L96.2507596,67.8202079 C96.2507596,67.8202079 97.4193951,67.4647741 97.7859361,68.2590281 C98.1524772,69.0523836 113.942245,80.1400868 113.942245,80.1400868 L134.00367,78.2301205 L134.680072,87.5091298 L111.850887,91.4215961 L94.3625179,84.3287656 L91.9037201,105.131522 L97.8039855,133.862769 C97.8039855,133.862769 86.9336098,138.792861 85.0310755,139.026277 C83.1284596,139.259286 82.6620345,137.823095 82.6620345,137.823095 L76.9551669,102.102658 L80.9348487,60.0353759 L80.934767,60.0353759 Z M67.5392764,60.0353759 L64.6844541,63.0052731 L52.2218954,67.8202079 C52.2218954,67.8202079 51.2687906,67.457342 50.9008612,68.253066 C50.5320333,69.0487084 39.0838328,100.512761 39.0838328,100.512761 L36.0752234,124.907015 L45.9754251,125.217366 L48.0257845,104.083596 L55.0177509,89.4453943 L56.570405,105.131603 L50.6688329,133.862851 C50.6688329,133.862851 61.5405153,138.792942 63.4417428,139.026359 C65.3457471,139.259367 65.8121722,137.823177 65.8121722,137.823177 L71.5190398,102.102739 L67.539358,60.0354576 L67.5392764,60.0353759 Z" id="Shape" fill="#21D0C3"></path>
            <polygon id="Shape" fill="#FFFFFF" points="38.0980595 124.843475 45.2907741 125.115195 45.2907741 126.726735 38.0009523 126.726735"></polygon>
            <g id="Group" transform="translate(62.898465, 30.000408)">
                <polygon id="Shape" fill="#F0BA7D" points="6.42508552 25.9545033 4.95769628 29.5091674 10.4904406 34.4010366 12.0956094 34.4010366 17.5367184 29.5091674 16.8451254 26.0512022"></polygon>
                <path d="M1.51720877,10.2277855 C1.51720877,10.8820547 1.27823838,11.5226032 1.29620608,12.1506559 C-0.94248744,11.735357 0.13859629,18.3852021 1.40531901,19.2995946 C1.50569311,19.3718738 1.75340233,19.2098378 1.962481,19.0767135 C2.40179122,21.5226072 6.15164982,28.0587658 8.5358817,30.8094571 C9.19799137,31.5733292 13.2472572,31.5604252 13.9029148,30.8384504 C16.3451333,28.149911 20.0905,21.5368997 20.5320154,19.0767135 C20.741094,19.2097561 20.9883132,19.3718738 21.0891774,19.2995946 C22.3559001,18.3851205 23.4369838,11.7352754 21.1982903,12.1506559 C21.216258,11.5226032 20.9772876,10.8821364 20.9772876,10.2277855 C20.8533922,5.06378737 16.1743585,2.48574937 11.247044,2.46361643 C6.3202195,2.48574937 1.64110421,5.06378737 1.51720877,10.2277855 Z" id="Shape" fill="#FED298"></path>
                <path d="M4.51748767,3.60832215 C3.81160215,3.52591575 1.26116907,4.30726561 0.954983157,7.00552384 C0.648797246,9.70419043 0.794743958,12.1901848 0.794743958,12.1901848 C0.794743958,12.1901848 2.2889214,12.5677515 2.47725555,14.0992527 C2.66509967,15.630754 2.53115864,15.630754 2.53115864,15.630754 L3.0721497,15.509227 L3.45804685,12.883738 C5.69306516,11.4825842 3.44097754,9.40780509 5.67697591,8.92251389 C11.7153476,13.2258593 17.0432601,12.4891836 19.445868,10.4650408 C19.445868,10.4650408 18.8845408,12.5822073 19.317399,13.3373407 C19.7497671,14.092474 19.4914406,15.2822623 19.4914406,15.2822623 L20.0531762,15.2550658 C20.0531762,15.2550658 19.9514137,12.1368534 21.1982903,12.1507376 C25.9353922,4.32907186 10.9384896,-5.38647089 4.51748767,3.60840382 L4.51748767,3.60832215 Z" id="Shape" fill="#666666"></path>
            </g>
            <polygon id="Shape" fill="#FFFFFF" points="134.044179 78.7891609 136.222109 78.3217557 136.937224 86.1724964 134.606895 86.5017137"></polygon>
            <g id="Group" transform="translate(50.847040, 146.700445)">
                <g id="Shape">
                    <path d="M2.39893272,11.4838909 C2.39893272,12.4512881 2.08261956,18.0494512 2.10605924,18.9773195 C-0.856977531,18.3635592 1.16953381,28.2020174 2.84510333,29.5525349 C2.9763492,29.6584626 3.30507641,29.4194923 3.58226899,29.2228276 C4.02247759,31.9629833 6.3840865,35.5075201 9.16205598,38.8343211 L8.00493622,49.6747234 L15.2814456,49.1833885 L22.557955,49.6747234 L21.4036121,38.8591492 C24.200366,35.5544811 26.5307764,31.96478 26.970495,29.2228276 C27.2476876,29.4194106 27.5760064,29.658381 27.7081507,29.5525349 C29.3837202,28.2020174 31.4092515,18.3635592 28.4462147,18.9773195 C28.4701444,18.0495329 28.1547296,12.4513698 28.1547296,11.4838909 C27.9899169,3.84549576 21.797758,0.0329135562 15.2767903,0.000245014066 C8.75590433,0.0329135562 2.5623571,3.84549576 2.39885105,11.4838909 L2.39893272,11.4838909 Z" fill="#FED298"></path>
                    <g>
                        <path d="M6.09913514,47.0864765 L0,49.2630181 C6.17745797,56.2954935 13.3231299,62.4567805 21.2332456,67.5319202 L30.8829613,49.4039829 L24.4071578,47.1090995 L18.7044555,51.6091095 L11.869053,51.6091095 L6.09913514,47.0865582 L6.09913514,47.0864765 Z" fill="#CCCCCC"></path>
                        <path d="M13.2301879,51.1964241 L14.0139062,53.355488 L13.4047195,61.9631589 C14.6967604,62.9789055 16.0150177,63.9624736 17.3572048,64.91468 L16.5399195,53.355488 L17.3231478,51.1964241 L15.276872,51.1042988 L13.2301879,51.1964241 Z" fill="#0F5F9B"></path>
                        <path d="M6.25708754,47.0307766 L0,49.2626098 C11.7157559,62.6000321 26.9253307,72.788452 44.1978423,78.408258 C43.9353506,72.2874799 43.7244751,60.5851181 43.2386939,57.7413215 C42.7022765,54.5996695 40.5072771,52.8131086 40.5072771,52.8131086 L24.4071578,47.1090178 C18.2914434,43.8347315 12.2369825,43.5658694 6.25708754,47.0307766 Z" fill="#21D0C3"></path>
                        <path d="M9.16989643,40.7824279 C6.96109462,41.9437129 7.1342379,43.135788 7.1342379,43.135788 L6.88465024,46.7333295 C12.1291763,43.8200306 18.4244861,43.8200306 23.6690121,46.7333295 L23.4194245,43.135788 C23.4194245,43.135788 23.5331927,42.0739787 21.384256,40.7824279 C18.3485317,38.9567464 12.7622927,38.8909193 9.16989643,40.7824279 Z" fill="#FFFFFF"></path>
                        <path d="M6.29302294,2.23158811 C3.09101578,4.84000786 -0.869309906,8.12997506 0.567779262,13.2294528 L3.48009812,23.562921 C4.8025207,28.2572272 4.99681686,36.7953957 11.1935493,36.7092324 L15.2842224,36.6516541 L19.3744056,36.7092324 C25.5702396,36.795314 25.7668226,28.2571455 27.0878567,23.562921 L29.9997672,13.2294528 C31.4372648,8.12997506 27.4769391,4.84000786 24.2750136,2.23158811 C20.624059,-0.743862704 9.94348751,-0.743862704 6.29302294,2.23158811 Z" fill="#666666"></path>
                    </g>
                </g>
                <g transform="translate(46.337142, 0.000000)" id="Shape">
                    <path d="M15.9375933,11.4838909 C15.9375933,12.4512881 15.6212801,18.0494512 15.6447198,18.9773195 C12.681683,18.3635592 14.7081944,28.2020174 16.3837639,29.5525349 C16.5150098,29.6584626 16.843737,29.4194923 17.1209296,29.2228276 C17.5611382,31.9629833 19.9227471,35.5075201 22.7007165,38.8343211 L21.5435968,49.6747234 L28.8201062,49.1833885 L36.0966156,49.6747234 L34.9422726,38.8591492 C37.7390265,35.5544811 40.069437,31.96478 40.5091556,29.2228276 C40.7863481,29.4194106 41.114667,29.658381 41.2468112,29.5525349 C42.9223808,28.2020174 44.9479121,18.3635592 41.9848753,18.9773195 C42.008805,18.0495329 41.6933902,12.4513698 41.6933902,11.4838909 C41.5285774,3.84549576 35.3364186,0.0329135562 28.8154509,0.000245014066 C22.2945649,0.0329135562 16.1010177,3.84549576 15.9375116,11.4838909 L15.9375933,11.4838909 Z" fill="#FED298"></path>
                    <g>
                        <polygon fill="#CCCCCC" points="19.637714 47.0864765 10.4733713 50.3565976 24.6852488 72.3344409 32.2154294 72.3344409 44.4215402 49.4039012 37.9457367 47.1090178 32.2430344 51.6090278 25.4076319 51.6090278"></polygon>
                        <polygon fill="#0F5F9B" points="26.7687668 51.1964241 27.5524851 53.355488 26.209808 72.3344409 31.4206855 72.3344409 30.0784984 53.355488 30.8617267 51.1964241 28.8154509 51.1043805"></polygon>
                        <path d="M19.7956664,47.0307766 L3.58504581,52.8131086 C3.58504581,52.8131086 1.38914808,54.5996695 0.853220649,57.7413215 C0.43326654,60.2001193 0.220104302,71.6690644 0,79.0777181 C9.12571223,81.8196705 18.7969891,83.2996371 28.8159409,83.2996371 C38.8344844,83.2996371 48.5062513,81.8192621 57.6318819,79.0777181 C57.4117776,71.6690644 57.1972269,60.2001193 56.7772728,57.7413215 C56.2408554,54.5996695 54.045856,52.8131086 54.045856,52.8131086 L37.9457367,47.1090178 C31.8300223,43.8347315 25.7755614,43.5658694 19.7956664,47.0307766 Z" fill="#21D0C3"></path>
                        <path d="M22.7084753,40.7824279 C20.4996735,41.9437129 20.6728168,43.135788 20.6728168,43.135788 L20.4232291,46.7333295 C25.6677552,43.8200306 31.9630649,43.8200306 37.207591,46.7333295 L36.9580034,43.135788 C36.9580034,43.135788 37.0717716,42.0739787 34.9228349,40.7824279 C31.8871106,38.9567464 26.3008716,38.8909193 22.7084753,40.7824279 Z" fill="#FFFFFF"></path>
                        <path d="M19.8316018,2.23158811 C16.6295947,4.84000786 12.669269,8.12997506 14.1063582,13.2294528 L17.018677,23.562921 C18.3410996,28.2572272 18.5353958,36.7953957 24.7321282,36.7092324 L28.8228013,36.6516541 L32.9129845,36.7092324 C39.1088185,36.795314 39.3054015,28.2571455 40.6264356,23.562921 L43.5383461,13.2294528 C44.9758437,8.12997506 41.015518,4.84000786 37.8135925,2.23158811 C34.1626379,-0.743862704 23.4820664,-0.743862704 19.8316018,2.23158811 Z" fill="#666666"></path>
                    </g>
                </g>
                <g transform="translate(106.233607, 0.000000)" id="Shape">
                    <path d="M15.9168488,11.4838909 C15.9168488,12.4512881 15.6005356,18.0494512 15.6239753,18.9773195 C12.6609385,18.3635592 14.6874498,28.2020174 16.3630194,29.5525349 C16.4942652,29.6584626 16.8229924,29.4194923 17.100185,29.2228276 C17.5403936,31.9629833 19.9020025,35.5075201 22.679972,38.8343211 L21.5228523,49.6747234 L28.7993617,49.1833885 L36.0758711,49.6747234 L34.9215281,38.8591492 C37.718282,35.5544811 40.0486925,31.96478 40.488411,29.2228276 C40.7656036,29.4194106 41.0939225,29.658381 41.2260667,29.5525349 C42.9016362,28.2020174 44.9271675,18.3635592 41.9641308,18.9773195 C41.9880605,18.0495329 41.6726457,12.4513698 41.6726457,11.4838909 C41.5078329,3.84549576 35.3156741,0.0329135562 28.7947064,0.000245014066 C22.2738204,0.0329135562 16.0802731,3.84549576 15.9167671,11.4838909 L15.9168488,11.4838909 Z" fill="#FED298"></path>
                    <g>
                        <path d="M19.6170512,47.0864765 L10.4527084,50.3565976 L21.9276155,68.1014963 C30.1927566,62.9241857 37.6460845,56.5736661 44.0555708,49.2814758 L37.9251556,47.1090995 L32.2224532,51.6091095 L25.3870508,51.6091095 L19.6171329,47.0865582 L19.6170512,47.0864765 Z" fill="#CCCCCC"></path>
                        <path d="M26.7480222,51.1964241 L27.5317406,53.355488 L26.7139653,64.9155784 C28.0561523,63.963372 29.3744913,62.9798039 30.6664505,61.9640573 L30.0577539,53.355488 L30.8409822,51.1964241 L28.7947064,51.1042988 L26.7480222,51.1964241 Z" fill="#0F5F9B"></path>
                        <path d="M19.7749219,47.0307766 L3.56430129,52.8131086 C3.56430129,52.8131086 1.36840356,54.5996695 0.832476124,57.7413215 C0.425916118,60.1227765 0.212672209,70.9572169 0,78.3676673 C17.2139532,72.7432877 32.3701967,62.5755307 44.0559792,49.2809041 L37.9250739,47.1089361 C31.8093595,43.8346498 25.7548985,43.5657877 19.7750036,47.030695 L19.7749219,47.0307766 Z" fill="#21D0C3"></path>
                        <path d="M22.6877308,40.7824279 C20.478929,41.9437129 20.6520723,43.135788 20.6520723,43.135788 L20.4024846,46.7333295 C25.6470107,43.8200306 31.9423204,43.8200306 37.1868465,46.7333295 L36.9372588,43.135788 C36.9372588,43.135788 37.051027,42.0739787 34.9020903,40.7824279 C31.8663661,38.9567464 26.280127,38.8909193 22.6877308,40.7824279 Z" fill="#FFFFFF"></path>
                        <path d="M19.8108573,2.23158811 C16.6088502,4.84000786 12.6485245,8.12997506 14.0856136,13.2294528 L16.9979325,23.562921 C18.3203551,28.2572272 18.5146512,36.7953957 24.7113836,36.7092324 L28.8020568,36.6516541 L32.89224,36.7092324 C39.088074,36.795314 39.2846569,28.2571455 40.6056911,23.562921 L43.5176016,13.2294528 C44.9550991,8.12997506 40.9947734,4.84000786 37.792848,2.23158811 C34.1418934,-0.743862704 23.4613219,-0.743862704 19.8108573,2.23158811 Z" fill="#666666"></path>
                    </g>
                </g>
            </g>
            <path d="M116.389527,49.1231845 L226,49.1231845 L226,52.395184 L116.389527,52.395184 L116.389527,49.1231845 Z M116.389527,124.820525 L226,124.820525 L226,128.092525 L116.389527,128.092525 L116.389527,124.820525 Z" id="Shape" fill="#666666"></path>
        </g>
    </g>
</svg>