<?xml version="1.0" encoding="utf-8"?>
<!-- Generator: Adobe Illustrator 18.0.0, SVG Export Plug-In . SVG Version: 6.00 Build 0)  -->
<!DOCTYPE svg PUBLIC "-//W3C//DTD SVG 1.1//EN" "http://www.w3.org/Graphics/SVG/1.1/DTD/svg11.dtd">
<svg version="1.1" id="Layer_1" xmlns="http://www.w3.org/2000/svg" xmlns:xlink="http://www.w3.org/1999/xlink" x="0px" y="0px"
	 viewBox="0 0 256 256" enable-background="new 0 0 256 256" xml:space="preserve">
<g>
	<circle fill="#F3756F" cx="128" cy="128" r="127"/>
	<g>
		<g>
			<polygon fill="#CED3C7" points="186.7,168.5 149.5,108 149.5,182.3 186.7,182.3 			"/>
			<polygon fill="#BCC1B4" points="142,96 130.6,182.3 149.5,182.3 149.5,108 			"/>
			<polygon fill="#CED3C7" points="115.3,96 70.7,168.5 70.7,182.3 126.8,182.3 			"/>
			<polygon fill="#36505F" points="70.7,182.3 70.7,189.6 127.7,189.6 126.8,182.3 			"/>
			<rect x="86.8" y="163.4" fill="#BF4028" width="3.4" height="9.9"/>
			<polygon fill="#36505F" points="186.7,182.3 186.7,189.6 129.6,189.6 130.6,182.3 			"/>
			<rect x="167.2" y="163.4" fill="#BF4028" width="3.4" height="9.9"/>
			<polygon fill="#2C424F" points="128.7,46.9 115.9,65.6 128.7,84.2 141.5,65.6 			"/>
			<path fill="#EDF0F2" d="M144.2,199.5h-31V74.4c0-8.6,6.9-15.5,15.5-15.5h0c8.6,0,15.5,6.9,15.5,15.5V199.5z"/>
			<g>
				<g>
					<path fill="#EEE5E3" d="M111.4,165.9c-0.8,0-1.6,0.1-2.3,0.3c4.3,1.1,7.4,5,7.4,9.6v18.5h4.6v-18.7
						C121.1,170.3,116.8,165.9,111.4,165.9z"/>
					<polygon fill="#223D47" points="116.5,200.5 116.5,209.1 121.1,209.1 121.1,199.8 116.5,199.8 					"/>
					<polygon fill="#CF3A27" points="116.5,194.9 116.5,199.8 121.1,199.8 121.1,194.3 116.5,194.3 					"/>
					<path fill="#FFFFFF" d="M101.7,175.7v18.7h14.8v-18.5c0-4.7-3.2-8.6-7.4-9.6C104.8,167.3,101.7,171.1,101.7,175.7z"/>
					<polygon fill="#36505F" points="116.5,199.8 101.7,199.8 101.7,209.1 116.5,209.1 116.5,200.5 					"/>
					<polygon fill="#E65336" points="101.7,199.8 116.5,199.8 116.5,194.9 116.5,194.3 101.7,194.3 					"/>
				</g>
				<g>
					<path fill="#EEE5E3" d="M146,165.9c-0.8,0-1.6,0.1-2.3,0.3c4.3,1.1,7.4,5,7.4,9.6v18.5h4.6v-18.7
						C155.7,170.3,151.4,165.9,146,165.9z"/>
					<polygon fill="#223D47" points="151.1,200.5 151.1,209.1 155.7,209.1 155.7,199.8 151.1,199.8 					"/>
					<polygon fill="#CF3A27" points="151.1,194.9 151.1,199.8 155.7,199.8 155.7,194.3 151.1,194.3 					"/>
					<path fill="#FFFFFF" d="M136.3,175.7v18.7h14.8v-18.5c0-4.7-3.2-8.6-7.4-9.6C139.4,167.3,136.3,171.1,136.3,175.7z"/>
					<polygon fill="#36505F" points="151.1,199.8 136.3,199.8 136.3,209.1 151.1,209.1 151.1,200.5 					"/>
					<polygon fill="#E65336" points="136.3,199.8 151.1,199.8 151.1,194.9 151.1,194.3 136.3,194.3 					"/>
				</g>
			</g>
			<g>
				<path fill="#1F84AB" d="M118.9,76.1c-0.4,0.4-0.7,0.7-1,1.1c-0.8,0.9-1.3,2-1.7,2.9c-0.2,0.5-0.3,1-0.5,1.4
					c-0.1,0.5-0.2,0.9-0.2,1.3c0,0.4-0.1,0.8-0.1,1.2c0,0.4,0,0.7,0.1,1c0,0.6,0.2,1,0.3,1.3c0.1,0.3,0.1,0.4,0.1,0.4l1,0.1
					c0,0,0.1-0.1,0.2-0.4c0.1-0.3,0.3-0.7,0.5-1.1c0.2-0.4,0.5-0.9,0.9-1.4c0.2-0.2,0.4-0.5,0.6-0.8c0.2-0.3,0.5-0.5,0.7-0.8
					c0.3-0.2,0.5-0.5,0.8-0.8c0.1-0.1,0.2-0.1,0.3-0.2L118.9,76.1z"/>
				<path fill="#1F84AB" d="M127.7,72.2c-1.1,0.1-2.2,0.2-3.3,0.6c-1.4,0.4-2.6,1-3.7,1.8c-0.1,0.1-0.2,0.1-0.3,0.2l1.9,5.4
					c0,0,0.1,0,0.1-0.1c0.4-0.2,0.7-0.4,1.1-0.5c0.8-0.4,1.6-0.6,2.5-0.8c0.6-0.1,1.1-0.2,1.7-0.2V72.2z"/>
				<path fill="#1F84AB" d="M135,80.2l1.9-5.4c-0.1-0.1-0.2-0.1-0.3-0.2c-1.1-0.8-2.4-1.4-3.7-1.8l-1-0.3c-0.4-0.1-0.8-0.1-1.1-0.2
					c-0.5-0.1-0.8-0.1-1.1-0.1v6.4c0.2,0,0.4,0,0.5,0.1c0.2,0,0.4,0,0.6,0.1l0.6,0.1c0.9,0.2,1.7,0.4,2.5,0.8
					C134.2,79.7,134.6,80,135,80.2C135,80.2,135,80.2,135,80.2z"/>
				<path fill="#1F84AB" d="M142,82.8c-0.1-0.4-0.1-0.8-0.2-1.3c-0.1-0.4-0.3-0.9-0.5-1.4c-0.4-1-1-2-1.7-2.9
					c-0.3-0.4-0.6-0.7-1-1.1l-1.9,5.2c0.1,0.1,0.2,0.2,0.3,0.2c0.3,0.2,0.6,0.5,0.8,0.8c0.3,0.3,0.5,0.5,0.7,0.8
					c0.2,0.3,0.4,0.5,0.6,0.8c0.3,0.5,0.7,1,0.9,1.4c0.2,0.4,0.4,0.8,0.5,1c0.1,0.3,0.2,0.4,0.2,0.4h1c0,0,0-0.2,0.1-0.4
					c0.1-0.3,0.2-0.7,0.3-1.3C142,84.4,142.1,83.7,142,82.8z"/>
			</g>
			<rect x="121.1" y="190.7" fill="#527F99" width="15.1" height="9.1"/>
			<rect x="126.8" y="151.3" fill="#36505F" width="3.8" height="48.5"/>
		</g>
		<polygon fill="#FFFFFF" points="89.5,100.4 99.2,99.4 89.5,98.3 88.5,88.6 87.4,98.3 77.7,99.4 87.4,100.4 88.5,110.2 		"/>
		<polygon fill="#FFFFFF" points="181.3,86.5 197.5,84.8 181.3,83 179.5,66.7 177.7,83 161.5,84.8 177.7,86.5 179.5,102.8 		"/>
		<circle fill="#FFFFFF" cx="61.4" cy="134.6" r="2.9"/>
		<circle fill="#FFFFFF" cx="88.9" cy="58.2" r="5.5"/>
	</g>
</g>
</svg>
